{
  "asset": {
    "generator": "Khronos glTF Blender I/O v5.0.21",
    "version": "2.0"
  },
  "extensionsUsed": [
    "KHR_materials_emissive_strength"
  ],
  "scene": 0,
  "scenes": [
    {
      "name": "Scene",
      "nodes": [
        0,
        1,
        2,
        3,
        6,
        7,
        8,
        9,
        12,
        13,
        14
      ]
    }
  ],
  "nodes": [
    {
      "name": "Empty",
      "rotation": [
        -0.0025677599478513002,
        -0.7071021795272827,
        0.7071021199226379,
        0.002567652612924576
      ],
      "scale": [
        5.310121536254883,
        5.31011962890625,
        5.310120582580566
      ],
      "translation": [
        -2.230769634246826,
        -0.8310139179229736,
        4.8252153396606445
      ]
    },
    {
      "name": "Empty.006",
      "rotation": [
        0.5018123388290405,
        0.5018123388290405,
        -0.498181015253067,
        0.49818113446235657
      ],
      "scale": [
        5.310120582580566,
        5.310118675231934,
        5.310120582580566
      ],
      "translation": [
        -10.167101860046387,
        -0.7935677766799927,
        10.707651138305664
      ]
    },
    {
      "name": "Empty.007",
      "rotation": [
        0,
        -0.9999935030937195,
        0,
        0.0036313915625214577
      ],
      "scale": [
        5.310117721557617,
        5.310118675231934,
        5.310117721557617
      ],
      "translation": [
        -2.2294418811798096,
        -0.8310139179229736,
        3.3270790576934814
      ]
    },
    {
      "name": "Empty.009",
      "rotation": [
        0.4304593503475189,
        0.5609856247901917,
        -0.4304593801498413,
        0.5609853863716125
      ],
      "scale": [
        0.859300434589386,
        0.8593006134033203,
        0.8593006134033203
      ],
      "translation": [
        -0.029429197311401367,
        2.7186951637268066,
        -0.13816595077514648
      ]
    },
    {
      "mesh": 0,
      "name": "wheel",
      "rotation": [
        -0.70710688829422,
        0,
        0,
        0.7071066498756409
      ],
      "translation": [
        1.0326582193374634,
        -9.769901953404769e-05,
        0.03450896218419075
      ]
    },
    {
      "mesh": 0,
      "name": "wheel.001",
      "rotation": [
        -0.70710688829422,
        0,
        0,
        0.7071066498756409
      ],
      "translation": [
        -1.0754841566085815,
        -9.769901953404769e-05,
        0.03450896590948105
      ]
    },
    {
      "children": [
        4,
        5
      ],
      "mesh": 1,
      "name": "bogie",
      "rotation": [
        0,
        -0.7071068286895752,
        0.7071068286895752,
        1.3767879636361613e-07
      ],
      "translation": [
        -6.403500080108643,
        0.4923432469367981,
        0
      ]
    },
    {
      "mesh": 2,
      "name": "exterior",
      "translation": [
        0,
        1.22978675365448,
        0
      ]
    },
    {
      "mesh": 3,
      "name": "light_fixtures",
      "translation": [
        -6.169102668762207,
        4.38901424407959,
        0
      ]
    },
    {
      "mesh": 4,
      "name": "top_windows",
      "translation": [
        0,
        1.22978675365448,
        0
      ]
    },
    {
      "mesh": 0,
      "name": "wheel.002",
      "rotation": [
        -0.70710688829422,
        0,
        0,
        0.7071066498756409
      ],
      "translation": [
        1.0326595306396484,
        -9.769903408596292e-05,
        0.03450891375541687
      ]
    },
    {
      "mesh": 0,
      "name": "wheel.003",
      "rotation": [
        -0.70710688829422,
        0,
        0,
        0.7071066498756409
      ],
      "translation": [
        -1.0754828453063965,
        -9.769903408596292e-05,
        0.03450891375541687
      ]
    },
    {
      "children": [
        10,
        11
      ],
      "mesh": 1,
      "name": "bogie.001",
      "rotation": [
        0.70710688829422,
        0,
        0,
        0.7071066498756409
      ],
      "translation": [
        6.403500080108643,
        0.4923432469367981,
        0
      ]
    },
    {
      "mesh": 5,
      "name": "emissive",
      "translation": [
        -6.169102668762207,
        4.38901424407959,
        0
      ]
    },
    {
      "mesh": 6,
      "name": "exterior_2sided",
      "translation": [
        0,
        1.22978675365448,
        0
      ]
    }
  ],
  "materials": [
    {
      "name": "QR_BL_carriage.001",
      "pbrMetallicRoughness": {
        "baseColorTexture": {
          "index": 0
        }
      }
    },
    {
      "name": "QR_BL_carriage",
      "pbrMetallicRoughness": {
        "baseColorTexture": {
          "index": 1
        }
      }
    },
    {
      "doubleSided": true,
      "emissiveFactor": [
        1,
        1,
        1
      ],
      "extensions": {
        "KHR_materials_emissive_strength": {
          "emissiveStrength": 824.1998291015625
        }
      },
      "name": "Emissive",
      "pbrMetallicRoughness": {
        "baseColorTexture": {
          "index": 2
        },
        "metallicFactor": 0,
        "roughnessFactor": 0.5
      }
    },
    {
      "doubleSided": true,
      "name": "QR_BL_carriage_interior",
      "pbrMetallicRoughness": {
        "baseColorTexture": {
          "index": 3
        }
      }
    }
  ],
  "meshes": [
    {
      "name": "wheel",
      "primitives": [
        {
          "attributes": {
            "POSITION": 0,
            "NORMAL": 1,
            "TEXCOORD_0": 2,
            "COLOR_0": 3
          },
          "indices": 4,
          "material": 0
        }
      ]
    },
    {
      "name": "bogie",
      "primitives": [
        {
          "attributes": {
            "POSITION": 5,
            "NORMAL": 6,
            "TEXCOORD_0": 7,
            "COLOR_0": 8
          },
          "indices": 9,
          "material": 1
        }
      ]
    },
    {
      "name": "exterior",
      "primitives": [
        {
          "attributes": {
            "POSITION": 10,
            "NORMAL": 11,
            "TEXCOORD_0": 12,
            "COLOR_0": 13
          },
          "indices": 14,
          "material": 1
        }
      ]
    },
    {
      "name": "light_fixtures",
      "primitives": [
        {
          "attributes": {
            "POSITION": 15,
            "NORMAL": 16,
            "TEXCOORD_0": 17,
            "COLOR_0": 18
          },
          "indices": 19,
          "material": 1
        }
      ]
    },
    {
      "name": "top_windows",
      "primitives": [
        {
          "attributes": {
            "POSITION": 20,
            "NORMAL": 21,
            "TEXCOORD_0": 22,
            "COLOR_0": 23
          },
          "indices": 24,
          "material": 1
        }
      ]
    },
    {
      "name": "emissive",
      "primitives": [
        {
          "attributes": {
            "POSITION": 25,
            "NORMAL": 26,
            "TEXCOORD_0": 27,
            "COLOR_0": 28
          },
          "indices": 29,
          "material": 2
        }
      ]
    },
    {
      "name": "exterior_2sided",
      "primitives": [
        {
          "attributes": {
            "POSITION": 30,
            "NORMAL": 31,
            "TEXCOORD_0": 32,
            "COLOR_0": 33
          },
          "indices": 34,
          "material": 3
        },
        {
          "attributes": {
            "POSITION": 35,
            "NORMAL": 36,
            "TEXCOORD_0": 37,
            "COLOR_0": 38
          },
          "indices": 39,
          "material": 1
        }
      ]
    }
  ],
  "textures": [
    {
      "sampler": 0,
      "source": 0
    },
    {
      "sampler": 0,
      "source": 0
    },
    {
      "sampler": 0,
      "source": 0
    },
    {
      "sampler": 0,
      "source": 0
    }
  ],
  "images": [
    {
      "mimeType": "image/png",
      "name": "QR_BL_carriage_BaseColor",
      "uri": "QR_BL_carriage_BaseColor.png"
    }
  ],
  "accessors": [
    {
      "bufferView": 0,
      "componentType": 5126,
      "count": 1760,
      "max": [
        0.5148190259933472,
        0.51587975025177,
        0.8093209862709045
      ],
      "min": [
        -0.5170589685440063,
        -0.5158835053443909,
        -0.8093209862709045
      ],
      "type": "VEC3"
    },
    {
      "bufferView": 1,
      "componentType": 5126,
      "count": 1760,
      "type": "VEC3"
    },
    {
      "bufferView": 2,
      "componentType": 5126,
      "count": 1760,
      "type": "VEC2"
    },
    {
      "bufferView": 3,
      "componentType": 5126,
      "count": 1760,
      "type": "VEC3"
    },
    {
      "bufferView": 4,
      "componentType": 5123,
      "count": 4296,
      "type": "SCALAR"
    },
    {
      "bufferView": 5,
      "componentType": 5126,
      "count": 5969,
      "max": [
        1.813269853591919,
        1.1739399433135986,
        0.38907933235168457
      ],
      "min": [
        -1.813269853591919,
        -1.1739399433135986,
        -0.668449878692627
      ],
      "type": "VEC3"
    },
    {
      "bufferView": 6,
      "componentType": 5126,
      "count": 5969,
      "type": "VEC3"
    },
    {
      "bufferView": 7,
      "componentType": 5126,
      "count": 5969,
      "type": "VEC2"
    },
    {
      "bufferView": 8,
      "componentType": 5126,
      "count": 5969,
      "type": "VEC3"
    },
    {
      "bufferView": 9,
      "componentType": 5123,
      "count": 8628,
      "type": "SCALAR"
    },
    {
      "bufferView": 10,
      "componentType": 5126,
      "count": 22150,
      "max": [
        10.439582824707031,
        3.5722546577453613,
        1.6917059421539307
      ],
      "min": [
        -10.439582824707031,
        -1.0791033506393433,
        -1.6917059421539307
      ],
      "type": "VEC3"
    },
    {
      "bufferView": 11,
      "componentType": 5126,
      "count": 22150,
      "type": "VEC3"
    },
    {
      "bufferView": 12,
      "componentType": 5126,
      "count": 22150,
      "type": "VEC2"
    },
    {
      "bufferView": 13,
      "componentType": 5126,
      "count": 22150,
      "type": "VEC3"
    },
    {
      "bufferView": 14,
      "componentType": 5123,
      "count": 33156,
      "type": "SCALAR"
    },
    {
      "bufferView": 15,
      "componentType": 5126,
      "count": 11541,
      "max": [
        12.429890632629395,
        0.08770959079265594,
        0.9665935635566711
      ],
      "min": [
        -0.0916844829916954,
        -0.17505572736263275,
        -0.9665915369987488
      ],
      "type": "VEC3"
    },
    {
      "bufferView": 16,
      "componentType": 5126,
      "count": 11541,
      "type": "VEC3"
    },
    {
      "bufferView": 17,
      "componentType": 5126,
      "count": 11541,
      "type": "VEC2"
    },
    {
      "bufferView": 18,
      "componentType": 5126,
      "count": 11541,
      "type": "VEC3"
    },
    {
      "bufferView": 19,
      "componentType": 5123,
      "count": 14028,
      "type": "SCALAR"
    },
    {
      "bufferView": 20,
      "componentType": 5126,
      "count": 373,
      "max": [
        5.610228538513184,
        3.1740806102752686,
        0.9673222899436951
      ],
      "min": [
        -5.610228538513184,
        2.9838969707489014,
        -0.9673222899436951
      ],
      "type": "VEC3"
    },
    {
      "bufferView": 21,
      "componentType": 5126,
      "count": 373,
      "type": "VEC3"
    },
    {
      "bufferView": 22,
      "componentType": 5126,
      "count": 373,
      "type": "VEC2"
    },
    {
      "bufferView": 23,
      "componentType": 5126,
      "count": 373,
      "type": "VEC3"
    },
    {
      "bufferView": 24,
      "componentType": 5123,
      "count": 396,
      "type": "SCALAR"
    },
    {
      "bufferView": 25,
      "componentType": 5126,
      "count": 351,
      "max": [
        12.376141548156738,
        -0.10562709718942642,
        0.832465410232544
      ],
      "min": [
        -0.03793502599000931,
        -0.1292220950126648,
        -0.8324633836746216
      ],
      "type": "VEC3"
    },
    {
      "bufferView": 26,
      "componentType": 5126,
      "count": 351,
      "type": "VEC3"
    },
    {
      "bufferView": 27,
      "componentType": 5126,
      "count": 351,
      "type": "VEC2"
    },
    {
      "bufferView": 28,
      "componentType": 5126,
      "count": 351,
      "type": "VEC3"
    },
    {
      "bufferView": 29,
      "componentType": 5123,
      "count": 924,
      "type": "SCALAR"
    },
    {
      "bufferView": 30,
      "componentType": 5126,
      "count": 40,
      "max": [
        9.751314163208008,
        1.1168372631072998,
        1.1451870203018188
      ],
      "min": [
        -9.751314163208008,
        0.043710947036743164,
        -1.1451863050460815
      ],
      "type": "VEC3"
    },
    {
      "bufferView": 31,
      "componentType": 5126,
      "count": 40,
      "type": "VEC3"
    },
    {
      "bufferView": 32,
      "componentType": 5126,
      "count": 40,
      "type": "VEC2"
    },
    {
      "bufferView": 33,
      "componentType": 5126,
      "count": 40,
      "type": "VEC3"
    },
    {
      "bufferView": 34,
      "componentType": 5123,
      "count": 48,
      "type": "SCALAR"
    },
    {
      "bufferView": 35,
      "componentType": 5126,
      "count": 3361,
      "max": [
        6.646183013916016,
        2.333117961883545,
        1.5233330726623535
      ],
      "min": [
        -6.646183013916016,
        1.9402968883514404,
        -1.5233311653137207
      ],
      "type": "VEC3"
    },
    {
      "bufferView": 36,
      "componentType": 5126,
      "count": 3361,
      "type": "VEC3"
    },
    {
      "bufferView": 37,
      "componentType": 5126,
      "count": 3361,
      "type": "VEC2"
    },
    {
      "bufferView": 38,
      "componentType": 5126,
      "count": 3361,
      "type": "VEC3"
    },
    {
      "bufferView": 39,
      "componentType": 5123,
      "count": 4608,
      "type": "SCALAR"
    }
  ],
  "bufferViews": [
    {
      "buffer": 0,
      "byteLength": 21120,
      "byteOffset": 0,
      "target": 34962
    },
    {
      "buffer": 0,
      "byteLength": 21120,
      "byteOffset": 21120,
      "target": 34962
    },
    {
      "buffer": 0,
      "byteLength": 14080,
      "byteOffset": 42240,
      "target": 34962
    },
    {
      "buffer": 0,
      "byteLength": 21120,
      "byteOffset": 56320,
      "target": 34962
    },
    {
      "buffer": 0,
      "byteLength": 8592,
      "byteOffset": 77440,
      "target": 34963
    },
    {
      "buffer": 0,
      "byteLength": 71628,
      "byteOffset": 86032,
      "target": 34962
    },
    {
      "buffer": 0,
      "byteLength": 71628,
      "byteOffset": 157660,
      "target": 34962
    },
    {
      "buffer": 0,
      "byteLength": 47752,
      "byteOffset": 229288,
      "target": 34962
    },
    {
      "buffer": 0,
      "byteLength": 71628,
      "byteOffset": 277040,
      "target": 34962
    },
    {
      "buffer": 0,
      "byteLength": 17256,
      "byteOffset": 348668,
      "target": 34963
    },
    {
      "buffer": 0,
      "byteLength": 265800,
      "byteOffset": 365924,
      "target": 34962
    },
    {
      "buffer": 0,
      "byteLength": 265800,
      "byteOffset": 631724,
      "target": 34962
    },
    {
      "buffer": 0,
      "byteLength": 177200,
      "byteOffset": 897524,
      "target": 34962
    },
    {
      "buffer": 0,
      "byteLength": 265800,
      "byteOffset": 1074724,
      "target": 34962
    },
    {
      "buffer": 0,
      "byteLength": 66312,
      "byteOffset": 1340524,
      "target": 34963
    },
    {
      "buffer": 0,
      "byteLength": 138492,
      "byteOffset": 1406836,
      "target": 34962
    },
    {
      "buffer": 0,
      "byteLength": 138492,
      "byteOffset": 1545328,
      "target": 34962
    },
    {
      "buffer": 0,
      "byteLength": 92328,
      "byteOffset": 1683820,
      "target": 34962
    },
    {
      "buffer": 0,
      "byteLength": 138492,
      "byteOffset": 1776148,
      "target": 34962
    },
    {
      "buffer": 0,
      "byteLength": 28056,
      "byteOffset": 1914640,
      "target": 34963
    },
    {
      "buffer": 0,
      "byteLength": 4476,
      "byteOffset": 1942696,
      "target": 34962
    },
    {
      "buffer": 0,
      "byteLength": 4476,
      "byteOffset": 1947172,
      "target": 34962
    },
    {
      "buffer": 0,
      "byteLength": 2984,
      "byteOffset": 1951648,
      "target": 34962
    },
    {
      "buffer": 0,
      "byteLength": 4476,
      "byteOffset": 1954632,
      "target": 34962
    },
    {
      "buffer": 0,
      "byteLength": 792,
      "byteOffset": 1959108,
      "target": 34963
    },
    {
      "buffer": 0,
      "byteLength": 4212,
      "byteOffset": 1959900,
      "target": 34962
    },
    {
      "buffer": 0,
      "byteLength": 4212,
      "byteOffset": 1964112,
      "target": 34962
    },
    {
      "buffer": 0,
      "byteLength": 2808,
      "byteOffset": 1968324,
      "target": 34962
    },
    {
      "buffer": 0,
      "byteLength": 4212,
      "byteOffset": 1971132,
      "target": 34962
    },
    {
      "buffer": 0,
      "byteLength": 1848,
      "byteOffset": 1975344,
      "target": 34963
    },
    {
      "buffer": 0,
      "byteLength": 480,
      "byteOffset": 1977192,
      "target": 34962
    },
    {
      "buffer": 0,
      "byteLength": 480,
      "byteOffset": 1977672,
      "target": 34962
    },
    {
      "buffer": 0,
      "byteLength": 320,
      "byteOffset": 1978152,
      "target": 34962
    },
    {
      "buffer": 0,
      "byteLength": 480,
      "byteOffset": 1978472,
      "target": 34962
    },
    {
      "buffer": 0,
      "byteLength": 96,
      "byteOffset": 1978952,
      "target": 34963
    },
    {
      "buffer": 0,
      "byteLength": 40332,
      "byteOffset": 1979048,
      "target": 34962
    },
    {
      "buffer": 0,
      "byteLength": 40332,
      "byteOffset": 2019380,
      "target": 34962
    },
    {
      "buffer": 0,
      "byteLength": 26888,
      "byteOffset": 2059712,
      "target": 34962
    },
    {
      "buffer": 0,
      "byteLength": 40332,
      "byteOffset": 2086600,
      "target": 34962
    },
    {
      "buffer": 0,
      "byteLength": 9216,
      "byteOffset": 2126932,
      "target": 34963
    }
  ],
  "samplers": [
    {
      "magFilter": 9729,
      "minFilter": 9987
    }
  ],
  "buffers": [
    {
      "byteLength": 2136148,
      "uri": "carriage_empty.bin"
    }
  ]
}