{
	"asset":{
		"generator":"Khronos glTF Blender I/O v5.0.21",
		"version":"2.0"
	},
	"extensionsUsed":[
		"KHR_materials_emissive_strength"
	],
	"scene":0,
	"scenes":[
		{
			"name":"Scene",
			"nodes":[
				0,
				1,
				2,
				3,
				6,
				7,
				8,
				9,
				12,
				13,
				14,
				15
			]
		}
	],
	"nodes":[
		{
			"name":"Empty",
			"rotation":[
				-0.0025677592493593693,
				-0.7071021795272827,
				0.7071020603179932,
				0.002567652380093932
			],
			"scale":[
				5.310119152069092,
				5.310118675231934,
				5.310119152069092
			],
			"translation":[
				-2.230769634246826,
				-0.8310139179229736,
				4.8252153396606445
			]
		},
		{
			"name":"Empty.006",
			"rotation":[
				0.5018123388290405,
				0.5018123388290405,
				-0.498181015253067,
				0.49818113446235657
			],
			"scale":[
				5.310119152069092,
				5.310118675231934,
				5.310119152069092
			],
			"translation":[
				-10.167101860046387,
				-0.7935677766799927,
				10.707651138305664
			]
		},
		{
			"name":"Empty.007",
			"rotation":[
				0,
				-0.9999935030937195,
				0,
				0.0036313896998763084
			],
			"scale":[
				5.310119152069092,
				5.310118675231934,
				5.310119152069092
			],
			"translation":[
				-2.2294418811798096,
				-0.8310139179229736,
				3.3270790576934814
			]
		},
		{
			"name":"Empty.009",
			"rotation":[
				0.4304593503475189,
				0.5609856247901917,
				-0.4304594397544861,
				0.5609854459762573
			],
			"scale":[
				0.8593003153800964,
				0.859300434589386,
				0.859300434589386
			],
			"translation":[
				-0.029429197311401367,
				2.7186951637268066,
				-0.13816595077514648
			]
		},
		{
			"mesh":0,
			"name":"wheel",
			"rotation":[
				-0.70710688829422,
				0,
				0,
				0.7071066498756409
			],
			"translation":[
				1.0326600074768066,
				-9.769901953404769e-05,
				0.034508973360061646
			]
		},
		{
			"mesh":0,
			"name":"wheel.001",
			"rotation":[
				-0.70710688829422,
				0,
				0,
				0.7071066498756409
			],
			"translation":[
				-1.0754823684692383,
				-9.769901953404769e-05,
				0.034508973360061646
			]
		},
		{
			"children":[
				4,
				5
			],
			"mesh":1,
			"name":"bogie",
			"rotation":[
				0,
				-0.7071068286895752,
				0.7071068286895752,
				1.3767879636361613e-07
			],
			"translation":[
				-6.403500080108643,
				0.4923432469367981,
				0
			]
		},
		{
			"mesh":2,
			"name":"exterior",
			"translation":[
				0,
				1.22978675365448,
				0
			]
		},
		{
			"mesh":3,
			"name":"light_fixtures",
			"translation":[
				-6.169102668762207,
				4.38901424407959,
				0
			]
		},
		{
			"mesh":4,
			"name":"top_windows",
			"translation":[
				0,
				1.22978675365448,
				0
			]
		},
		{
			"mesh":0,
			"name":"wheel.002",
			"rotation":[
				-0.70710688829422,
				0,
				0,
				0.7071066498756409
			],
			"translation":[
				1.0326600074768066,
				-9.769901953404769e-05,
				0.034508973360061646
			]
		},
		{
			"mesh":0,
			"name":"wheel.003",
			"rotation":[
				-0.70710688829422,
				0,
				0,
				0.7071066498756409
			],
			"translation":[
				-1.0754823684692383,
				-9.769901953404769e-05,
				0.034508973360061646
			]
		},
		{
			"children":[
				10,
				11
			],
			"mesh":1,
			"name":"bogie.001",
			"rotation":[
				0.7071068286895752,
				0,
				0,
				0.7071068286895752
			],
			"translation":[
				6.403500080108643,
				0.4923432469367981,
				0
			]
		},
		{
			"mesh":5,
			"name":"emissive",
			"translation":[
				-6.169102668762207,
				4.38901424407959,
				0
			]
		},
		{
			"mesh":6,
			"name":"exterior_2sided",
			"translation":[
				0,
				1.22978675365448,
				0
			]
		},
		{
			"mesh":7,
			"name":"windows",
			"translation":[
				0,
				1.22978675365448,
				0
			]
		}
	],
	"materials":[
		{
			"name":"QR_BL_carriage",
			"normalTexture":{
				"index":0
			},
			"pbrMetallicRoughness":{
				"baseColorTexture":{
					"index":1
				},
				"metallicRoughnessTexture":{
					"index":2
				}
			}
		},
		{
			"doubleSided":true,
			"emissiveFactor":[
				1,
				1,
				1
			],
			"extensions":{
				"KHR_materials_emissive_strength":{
					"emissiveStrength":824.1998291015625
				}
			},
			"name":"Emissive",
			"pbrMetallicRoughness":{
				"baseColorTexture":{
					"index":3
				},
				"metallicFactor":0,
				"roughnessFactor":0.5
			}
		},
		{
			"doubleSided":true,
			"name":"QR_BL_carriage_interior",
			"normalTexture":{
				"index":4
			},
			"pbrMetallicRoughness":{
				"baseColorTexture":{
					"index":5
				},
				"metallicRoughnessTexture":{
					"index":6
				}
			}
		},
		{
			"alphaMode":"BLEND",
			"doubleSided":true,
			"name":"Window",
			"pbrMetallicRoughness":{
				"baseColorFactor":[
					0.7200000286102295,
					0.800000011920929,
					0.8500000238418579,
					0.1599999964237213
				],
				"metallicFactor":0,
				"roughnessFactor":0.05999999865889549
			}
		}
	],
	"meshes":[
		{
			"name":"wheel",
			"primitives":[
				{
					"attributes":{
						"POSITION":0,
						"NORMAL":1,
						"TEXCOORD_0":2,
						"COLOR_0":3,
						"COLOR_1":4
					},
					"indices":5,
					"material":0
				}
			]
		},
		{
			"name":"bogie",
			"primitives":[
				{
					"attributes":{
						"POSITION":6,
						"NORMAL":7,
						"TEXCOORD_0":8
					},
					"indices":9,
					"material":0
				}
			]
		},
		{
			"name":"exterior",
			"primitives":[
				{
					"attributes":{
						"POSITION":10,
						"NORMAL":11,
						"TEXCOORD_0":12
					},
					"indices":13,
					"material":0
				}
			]
		},
		{
			"name":"light_fixtures",
			"primitives":[
				{
					"attributes":{
						"POSITION":14,
						"NORMAL":15,
						"TEXCOORD_0":16
					},
					"indices":17,
					"material":0
				}
			]
		},
		{
			"name":"top_windows",
			"primitives":[
				{
					"attributes":{
						"POSITION":18,
						"NORMAL":19,
						"TEXCOORD_0":20
					},
					"indices":21,
					"material":0
				}
			]
		},
		{
			"name":"emissive",
			"primitives":[
				{
					"attributes":{
						"POSITION":22,
						"NORMAL":23,
						"TEXCOORD_0":24
					},
					"indices":25,
					"material":1
				}
			]
		},
		{
			"name":"exterior_2sided",
			"primitives":[
				{
					"attributes":{
						"POSITION":26,
						"NORMAL":27,
						"TEXCOORD_0":28
					},
					"indices":29,
					"material":2
				},
				{
					"attributes":{
						"POSITION":30,
						"NORMAL":31,
						"TEXCOORD_0":32
					},
					"indices":33,
					"material":0
				}
			]
		},
		{
			"name":"windows",
			"primitives":[
				{
					"attributes":{
						"POSITION":34,
						"NORMAL":35,
						"TEXCOORD_0":36
					},
					"indices":37,
					"material":3
				}
			]
		}
	],
	"textures":[
		{
			"sampler":0,
			"source":0
		},
		{
			"sampler":0,
			"source":1
		},
		{
			"sampler":0,
			"source":2
		},
		{
			"sampler":0,
			"source":1
		},
		{
			"sampler":0,
			"source":0
		},
		{
			"sampler":0,
			"source":1
		},
		{
			"sampler":0,
			"source":2
		}
	],
	"images":[
		{
			"mimeType":"image/png",
			"name":"Carriage_QR_BL_carriage_Normal",
			"uri":"Carriage_QR_BL_carriage_Normal.png"
		},
		{
			"mimeType":"image/png",
			"name":"QR_BL_carriage_BaseColor",
			"uri":"QR_BL_carriage_BaseColor.png"
		},
		{
			"mimeType":"image/png",
			"name":"Carriage_QR_BL_carriage_Metallic-Carriage_QR_BL_carriage_Roughness",
			"uri":"Carriage_QR_BL_carriage_Metallic-Carriage_QR_BL_carriage_Roughness.png"
		}
	],
	"accessors":[
		{
			"bufferView":0,
			"componentType":5126,
			"count":1364,
			"max":[
				0.5148190259933472,
				0.51587975025177,
				0.8093209862709045
			],
			"min":[
				-0.5170589685440063,
				-0.5158835053443909,
				-0.8093209862709045
			],
			"type":"VEC3"
		},
		{
			"bufferView":1,
			"componentType":5126,
			"count":1364,
			"type":"VEC3"
		},
		{
			"bufferView":2,
			"componentType":5126,
			"count":1364,
			"type":"VEC2"
		},
		{
			"bufferView":3,
			"componentType":5121,
			"count":1364,
			"normalized":true,
			"type":"VEC4"
		},
		{
			"bufferView":4,
			"componentType":5123,
			"count":1364,
			"normalized":true,
			"type":"VEC4"
		},
		{
			"bufferView":5,
			"componentType":5123,
			"count":4296,
			"type":"SCALAR"
		},
		{
			"bufferView":6,
			"componentType":5126,
			"count":4324,
			"max":[
				1.813269853591919,
				1.1739399433135986,
				0.38907933235168457
			],
			"min":[
				-1.813269853591919,
				-1.1739399433135986,
				-0.668449878692627
			],
			"type":"VEC3"
		},
		{
			"bufferView":7,
			"componentType":5126,
			"count":4324,
			"type":"VEC3"
		},
		{
			"bufferView":8,
			"componentType":5126,
			"count":4324,
			"type":"VEC2"
		},
		{
			"bufferView":9,
			"componentType":5123,
			"count":8628,
			"type":"SCALAR"
		},
		{
			"bufferView":10,
			"componentType":5126,
			"count":16637,
			"max":[
				10.439582824707031,
				3.5722546577453613,
				1.6917059421539307
			],
			"min":[
				-10.439582824707031,
				-1.0791033506393433,
				-1.6917059421539307
			],
			"type":"VEC3"
		},
		{
			"bufferView":11,
			"componentType":5126,
			"count":16637,
			"type":"VEC3"
		},
		{
			"bufferView":12,
			"componentType":5126,
			"count":16637,
			"type":"VEC2"
		},
		{
			"bufferView":13,
			"componentType":5123,
			"count":42354,
			"type":"SCALAR"
		},
		{
			"bufferView":14,
			"componentType":5126,
			"count":4102,
			"max":[
				12.429890632629395,
				0.08770959079265594,
				0.9665935635566711
			],
			"min":[
				-0.0916844829916954,
				-0.17505572736263275,
				-0.9665915369987488
			],
			"type":"VEC3"
		},
		{
			"bufferView":15,
			"componentType":5126,
			"count":4102,
			"type":"VEC3"
		},
		{
			"bufferView":16,
			"componentType":5126,
			"count":4102,
			"type":"VEC2"
		},
		{
			"bufferView":17,
			"componentType":5123,
			"count":14028,
			"type":"SCALAR"
		},
		{
			"bufferView":18,
			"componentType":5126,
			"count":156,
			"max":[
				5.610228538513184,
				3.1740806102752686,
				0.9673222899436951
			],
			"min":[
				-5.610228538513184,
				2.9838969707489014,
				-0.9673222899436951
			],
			"type":"VEC3"
		},
		{
			"bufferView":19,
			"componentType":5126,
			"count":156,
			"type":"VEC3"
		},
		{
			"bufferView":20,
			"componentType":5126,
			"count":156,
			"type":"VEC2"
		},
		{
			"bufferView":21,
			"componentType":5123,
			"count":396,
			"type":"SCALAR"
		},
		{
			"bufferView":22,
			"componentType":5126,
			"count":336,
			"max":[
				12.376141548156738,
				-0.10562709718942642,
				0.832465410232544
			],
			"min":[
				-0.03793502599000931,
				-0.1292220950126648,
				-0.8324633836746216
			],
			"type":"VEC3"
		},
		{
			"bufferView":23,
			"componentType":5126,
			"count":336,
			"type":"VEC3"
		},
		{
			"bufferView":24,
			"componentType":5126,
			"count":336,
			"type":"VEC2"
		},
		{
			"bufferView":25,
			"componentType":5123,
			"count":924,
			"type":"SCALAR"
		},
		{
			"bufferView":26,
			"componentType":5126,
			"count":32,
			"max":[
				9.751314163208008,
				1.1168372631072998,
				1.1451870203018188
			],
			"min":[
				-9.751314163208008,
				0.043710947036743164,
				-1.1451863050460815
			],
			"type":"VEC3"
		},
		{
			"bufferView":27,
			"componentType":5126,
			"count":32,
			"type":"VEC3"
		},
		{
			"bufferView":28,
			"componentType":5126,
			"count":32,
			"type":"VEC2"
		},
		{
			"bufferView":29,
			"componentType":5123,
			"count":48,
			"type":"SCALAR"
		},
		{
			"bufferView":30,
			"componentType":5126,
			"count":1776,
			"max":[
				6.646183013916016,
				2.333117961883545,
				1.5233330726623535
			],
			"min":[
				-6.646183013916016,
				1.9402968883514404,
				-1.5233311653137207
			],
			"type":"VEC3"
		},
		{
			"bufferView":31,
			"componentType":5126,
			"count":1776,
			"type":"VEC3"
		},
		{
			"bufferView":32,
			"componentType":5126,
			"count":1776,
			"type":"VEC2"
		},
		{
			"bufferView":33,
			"componentType":5123,
			"count":4608,
			"type":"SCALAR"
		},
		{
			"bufferView":34,
			"componentType":5126,
			"count":12,
			"max":[
				8.628774642944336,
				2.2403929233551025,
				0.22694331407546997
			],
			"min":[
				-8.628774642944336,
				1.324331283569336,
				-0.22694391012191772
			],
			"type":"VEC3"
		},
		{
			"bufferView":35,
			"componentType":5126,
			"count":12,
			"type":"VEC3"
		},
		{
			"bufferView":36,
			"componentType":5126,
			"count":12,
			"type":"VEC2"
		},
		{
			"bufferView":37,
			"componentType":5123,
			"count":24,
			"type":"SCALAR"
		}
	],
	"bufferViews":[
		{
			"buffer":0,
			"byteLength":16368,
			"byteOffset":0,
			"target":34962
		},
		{
			"buffer":0,
			"byteLength":16368,
			"byteOffset":16368,
			"target":34962
		},
		{
			"buffer":0,
			"byteLength":10912,
			"byteOffset":32736,
			"target":34962
		},
		{
			"buffer":0,
			"byteLength":5456,
			"byteOffset":43648,
			"target":34962
		},
		{
			"buffer":0,
			"byteLength":10912,
			"byteOffset":49104,
			"target":34962
		},
		{
			"buffer":0,
			"byteLength":8592,
			"byteOffset":60016,
			"target":34963
		},
		{
			"buffer":0,
			"byteLength":51888,
			"byteOffset":68608,
			"target":34962
		},
		{
			"buffer":0,
			"byteLength":51888,
			"byteOffset":120496,
			"target":34962
		},
		{
			"buffer":0,
			"byteLength":34592,
			"byteOffset":172384,
			"target":34962
		},
		{
			"buffer":0,
			"byteLength":17256,
			"byteOffset":206976,
			"target":34963
		},
		{
			"buffer":0,
			"byteLength":199644,
			"byteOffset":224232,
			"target":34962
		},
		{
			"buffer":0,
			"byteLength":199644,
			"byteOffset":423876,
			"target":34962
		},
		{
			"buffer":0,
			"byteLength":133096,
			"byteOffset":623520,
			"target":34962
		},
		{
			"buffer":0,
			"byteLength":84708,
			"byteOffset":756616,
			"target":34963
		},
		{
			"buffer":0,
			"byteLength":49224,
			"byteOffset":841324,
			"target":34962
		},
		{
			"buffer":0,
			"byteLength":49224,
			"byteOffset":890548,
			"target":34962
		},
		{
			"buffer":0,
			"byteLength":32816,
			"byteOffset":939772,
			"target":34962
		},
		{
			"buffer":0,
			"byteLength":28056,
			"byteOffset":972588,
			"target":34963
		},
		{
			"buffer":0,
			"byteLength":1872,
			"byteOffset":1000644,
			"target":34962
		},
		{
			"buffer":0,
			"byteLength":1872,
			"byteOffset":1002516,
			"target":34962
		},
		{
			"buffer":0,
			"byteLength":1248,
			"byteOffset":1004388,
			"target":34962
		},
		{
			"buffer":0,
			"byteLength":792,
			"byteOffset":1005636,
			"target":34963
		},
		{
			"buffer":0,
			"byteLength":4032,
			"byteOffset":1006428,
			"target":34962
		},
		{
			"buffer":0,
			"byteLength":4032,
			"byteOffset":1010460,
			"target":34962
		},
		{
			"buffer":0,
			"byteLength":2688,
			"byteOffset":1014492,
			"target":34962
		},
		{
			"buffer":0,
			"byteLength":1848,
			"byteOffset":1017180,
			"target":34963
		},
		{
			"buffer":0,
			"byteLength":384,
			"byteOffset":1019028,
			"target":34962
		},
		{
			"buffer":0,
			"byteLength":384,
			"byteOffset":1019412,
			"target":34962
		},
		{
			"buffer":0,
			"byteLength":256,
			"byteOffset":1019796,
			"target":34962
		},
		{
			"buffer":0,
			"byteLength":96,
			"byteOffset":1020052,
			"target":34963
		},
		{
			"buffer":0,
			"byteLength":21312,
			"byteOffset":1020148,
			"target":34962
		},
		{
			"buffer":0,
			"byteLength":21312,
			"byteOffset":1041460,
			"target":34962
		},
		{
			"buffer":0,
			"byteLength":14208,
			"byteOffset":1062772,
			"target":34962
		},
		{
			"buffer":0,
			"byteLength":9216,
			"byteOffset":1076980,
			"target":34963
		},
		{
			"buffer":0,
			"byteLength":144,
			"byteOffset":1086196,
			"target":34962
		},
		{
			"buffer":0,
			"byteLength":144,
			"byteOffset":1086340,
			"target":34962
		},
		{
			"buffer":0,
			"byteLength":96,
			"byteOffset":1086484,
			"target":34962
		},
		{
			"buffer":0,
			"byteLength":48,
			"byteOffset":1086580,
			"target":34963
		}
	],
	"samplers":[
		{
			"magFilter":9729,
			"minFilter":9987
		}
	],
	"buffers":[
		{
			"byteLength":1086628,
			"uri":"carriage.bin"
		}
	]
}
